<?xml version="1.0" encoding="utf-8"?>
<!-- Generator: Adobe Illustrator 23.0.1, SVG Export Plug-In . SVG Version: 6.00 Build 0)  -->
<svg version="1.1" id="Layer_1" xmlns="http://www.w3.org/2000/svg" xmlns:xlink="http://www.w3.org/1999/xlink" x="0px" y="0px"
	 viewBox="0 0 24 24" style="enable-background:new 0 0 24 24;" xml:space="preserve">
<style type="text/css">
	.st0{fill:none;}
</style>
<path class="st0" d="M-1.82-1.82h28v28h-28V-1.82z M-1.82-1.82h28v28h-28V-1.82z"/>
<path d="M17.53,7.02l-7.69,7.69l-4.19-4.18l-1.64,1.65l5.83,5.83l9.33-9.33L17.53,7.02z M12.18,0.51c-6.44,0-11.67,5.23-11.67,11.67
	s5.23,11.67,11.67,11.67s11.67-5.23,11.67-11.67S18.62,0.51,12.18,0.51z M12.18,21.51c-5.16,0-9.33-4.18-9.33-9.33
	s4.18-9.33,9.33-9.33s9.33,4.18,9.33,9.33S17.33,21.51,12.18,21.51z"/>
</svg>
