<svg id="a39d097d-4e60-4a0a-bfa9-5f864331178e" data-name="Layer 1" xmlns="http://www.w3.org/2000/svg" viewBox="0 0 1057 1920"><defs><style>.a9708703-3f53-4d64-8824-6a4b54b80a18{fill:#fff;}.ad0cded7-f18a-45b3-b5a3-ba37144e28ab{fill:#5c5c5c;}.b94b069d-c57f-4a4b-8dd4-bf734999cbf0{fill:#23254f;}</style></defs><title>essential_phone</title><path d="M98.89,0H969.28s79.46,0,87.89,71.89V1844.76s-1.21,76.31-93.91,75.2-863.17,0-863.17,0-89.08,4.43-89.08-84V77.42S8.6,4.42,98.89,0Z" transform="translate(-11)"/><path class="a9708703-3f53-4d64-8824-6a4b54b80a18" d="M588.86,27.65" transform="translate(-11)"/><path class="a9708703-3f53-4d64-8824-6a4b54b80a18" d="M580.43,85.16V37.6s379.93-10,391-10a2.32,2.32,0,0,1,.53.05c4,.75,51.6,10.61,53.9,51.93,2.4,42.9-1.2,1627.69,0,1671s-48.15,43.28-48.15,43.28L89,1793.9s-50.3,4.41-50.3-43.15-.21-1650.47,0-1672a2.3,2.3,0,0,1,.05-.45c.74-3.43,10.33-44.15,55.1-50.61a3.55,3.55,0,0,1,.46,0H474.49c3.62,0,9.64,6.64,9.64,8.85V83C484.13,130.5,580.43,129.4,580.43,85.16Z" transform="translate(-11)"/><path class="a9708703-3f53-4d64-8824-6a4b54b80a18" d="M971.69,27.65s-375.61,1.11-382.83,1.11-8.43,8.84-8.43,8.84Z" transform="translate(-11)"/><path class="ad0cded7-f18a-45b3-b5a3-ba37144e28ab" d="M1057.17,315.2c0-2.21,10.83-1.1,10.83,0V474.46c0,1.11-10.83,3.32-10.83,0Z" transform="translate(-11)"/><path class="ad0cded7-f18a-45b3-b5a3-ba37144e28ab" d="M1057.17,508.75c0-2.22,10.83-1.11,10.83,0V668c0,1.1-10.83,3.31-10.83,0Z" transform="translate(-11)"/><path class="ad0cded7-f18a-45b3-b5a3-ba37144e28ab" d="M1057.17,781.92c0-2.21,10.83-1.11,10.83,0v91.8c0,1.1-10.83,3.31-10.83,0Z" transform="translate(-11)"/><circle class="b94b069d-c57f-4a4b-8dd4-bf734999cbf0" cx="521" cy="86" r="14"/></svg>